<!DOCTYPE svg PUBLIC "-//W3C//DTD SVG 1.1//EN" "http://www.w3.org/Graphics/SVG/1.1/DTD/svg11.dtd">
<!-- Uploaded to: SVG Repo, www.svgrepo.com, Transformed by: SVG Repo Mixer Tools -->
<svg fill="#000000" height="64px" width="64px" version="1.1" id="Layer_1" xmlns="http://www.w3.org/2000/svg" xmlns:xlink="http://www.w3.org/1999/xlink" viewBox="0 0 512 512" xml:space="preserve">
<g id="SVGRepo_bgCarrier" stroke-width="0"/>
<g id="SVGRepo_tracerCarrier" stroke-linecap="round" stroke-linejoin="round"/>
<g id="SVGRepo_iconCarrier"> <g> <g> <path d="M394.15,117.797c-32.64-32.498-85.669-32.498-118.232,0.066c-30.134,30.317-58.703,106.682-23.582,141.803 c34.26,34.26,109.796,8.218,141.803-23.582c0.017-0.011,0.027-0.022,0.038-0.038C426.703,203.525,426.714,150.502,394.15,117.797z "/> </g> </g> <g> <g> <path d="M251.145,71.786l-47.268-47.268c-6.528-6.528-17.104-6.528-23.631,0c-6.528,6.522-6.528,17.108,0,23.631l47.268,47.268 c6.528,6.528,17.103,6.528,23.631,0C257.673,88.895,257.673,78.309,251.145,71.786z"/> </g> </g> <g> <g> <path d="M487.484,308.125l-47.268-47.268c-6.528-6.528-17.104-6.528-23.631,0c-6.528,6.522-6.528,17.108,0,23.631l47.268,47.268 c6.529,6.529,17.103,6.529,23.631,0C494.012,325.234,494.012,314.648,487.484,308.125z"/> </g> </g> <g> <g> <path d="M209.051,127.394l-32.281-8.65c-8.889-2.421-18.077,2.9-20.465,11.815c-2.388,8.915,2.899,18.076,11.815,20.465 l32.281,8.65c8.84,2.393,18.068-2.85,20.465-11.815C223.255,138.943,217.966,129.782,209.051,127.394z"/> </g> </g> <g> <g> <path d="M499.609,205.25l-32.281-8.65c-8.911-2.415-18.082,2.9-20.465,11.815c-2.389,8.916,2.9,18.077,11.815,20.465l32.281,8.65 c8.84,2.393,18.068-2.85,20.465-11.815C513.813,216.799,508.525,207.637,499.609,205.25z"/> </g> </g> <g> <g> <path d="M511.425,130.558c-2.383-8.915-11.549-14.236-20.465-11.815l-32.281,8.65c-8.916,2.389-14.204,11.549-11.815,20.465 c2.396,8.965,11.625,14.208,20.465,11.815l32.281-8.65C508.526,148.635,513.814,139.475,511.425,130.558z"/> </g> </g> <g> <g> <path d="M381.443,0.577c-8.884-2.4-18.077,2.904-20.465,11.815l-8.65,32.281c-2.389,8.916,2.9,18.077,11.815,20.465 c8.84,2.393,18.068-2.85,20.465-11.815l8.65-32.281C395.647,12.126,390.358,2.965,381.443,0.577z"/> </g> </g> <g> <g> <path d="M393.258,335.232l-8.65-32.281c-2.383-8.916-11.549-14.23-20.465-11.815c-8.916,2.389-14.204,11.549-11.815,20.465 l8.65,32.281c2.396,8.965,11.623,14.208,20.465,11.815C390.359,353.309,395.647,344.148,393.258,335.232z"/> </g> </g> <g> <g> <path d="M315.402,44.673l-8.65-32.281c-2.383-8.911-11.549-14.215-20.465-11.815c-8.916,2.389-14.204,11.549-11.815,20.465 l8.65,32.281c2.396,8.965,11.625,14.208,20.465,11.815C312.503,62.75,317.791,53.59,315.402,44.673z"/> </g> </g> <g> <g> <path d="M487.483,24.518c-6.528-6.528-17.104-6.528-23.631,0l-47.267,47.268c-6.528,6.522-6.528,17.108,0,23.631 c6.529,6.529,17.103,6.529,23.631,0l47.268-47.268C494.012,41.627,494.012,31.041,487.483,24.518z"/> </g> </g> <g> <g> <path d="M228.705,283.297c-12.471-12.468-20.485-28.444-23.959-46.907L4.894,436.236c-6.524,6.524-6.524,17.107,0,23.631 l47.241,47.24c6.524,6.524,17.107,6.524,23.631,0l199.799-199.803C257.099,303.815,241.127,295.721,228.705,283.297z"/> </g> </g> </g>
</svg>